<svg xmlns="http://www.w3.org/2000/svg" viewBox="14 24 100 74" role="img" aria-label="Agrikura favicon">
  <defs>
    <linearGradient id="g" x1="0" y1="0" x2="1" y2="1">
      <stop offset="0" stop-color="#2E7D32"/>
      <stop offset="1" stop-color="#4CAF50"/>
    </linearGradient>
  </defs>
  <path d="M18 78 L48 48 L66 66 L96 36 L110 50 L68 92 L48 72 L30 90 Z" fill="url(#g)"/>
  <path d="M70 30 C82 36 92 48 96 62 C84 58 74 46 70 30 Z" fill="#4CAF50"/>
  <path d="M66 36 C76 42 84 52 88 66 C78 62 70 52 66 36 Z" fill="#3E8E41"/>
  <path d="M62 42 C70 48 76 58 80 70 C72 66 66 56 62 42 Z" fill="#2E7D32"/>
  <path d="M58 50 C64 56 68 64 70 74 C64 70 60 62 58 50 Z" fill="#2E7D32" opacity="0.9"/>
  <path d="M54 58 C58 62 60 68 60 74 C56 72 54 66 54 58 Z" fill="#2E7D32" opacity="0.85"/>
  <path d="M64 80 C72 72 80 64 88 56" fill="none" stroke="#1B5E20" stroke-width="6" stroke-linecap="round"/>
</svg>
